<svg width="13" height="18" viewBox="0 0 13 18" fill="none" xmlns="http://www.w3.org/2000/svg">
<path d="M6.75 0C4.88672 0 3.375 1.51172 3.375 3.375V9C3.375 10.8633 4.88672 12.375 6.75 12.375C8.61328 12.375 10.125 10.8633 10.125 9V3.375C10.125 1.51172 8.61328 0 6.75 0ZM2.25 7.59375C2.25 7.12617 1.87383 6.75 1.40625 6.75C0.938672 6.75 0.5625 7.12617 0.5625 7.59375V9C0.5625 12.1324 2.88984 14.7199 5.90625 15.1312V16.3125H4.21875C3.75117 16.3125 3.375 16.6887 3.375 17.1562C3.375 17.6238 3.75117 18 4.21875 18H6.75H9.28125C9.74883 18 10.125 17.6238 10.125 17.1562C10.125 16.6887 9.74883 16.3125 9.28125 16.3125H7.59375V15.1312C10.6102 14.7199 12.9375 12.1324 12.9375 9V7.59375C12.9375 7.12617 12.5613 6.75 12.0938 6.75C11.6262 6.75 11.25 7.12617 11.25 7.59375V9C11.25 11.4855 9.23555 13.5 6.75 13.5C4.26445 13.5 2.25 11.4855 2.25 9V7.59375Z" fill="#D0A50B"/>
</svg>
