<svg width="16" height="18" viewBox="0 0 16 18" fill="none" xmlns="http://www.w3.org/2000/svg">
<path d="M7.875 8.15625C8.34258 8.15625 8.71875 8.53242 8.71875 9V10.6875H10.4062C10.8738 10.6875 11.25 11.0637 11.25 11.5312C11.25 11.9988 10.8738 12.375 10.4062 12.375H8.71875V14.0625C8.71875 14.5301 8.34258 14.9062 7.875 14.9062C7.40742 14.9062 7.03125 14.5301 7.03125 14.0625V12.375H5.34375C4.87617 12.375 4.5 11.9988 4.5 11.5312C4.5 11.0637 4.87617 10.6875 5.34375 10.6875H7.03125V9C7.03125 8.53242 7.40742 8.15625 7.875 8.15625ZM5.34375 2.25H10.4062V0.84375C10.4062 0.37793 10.7824 0 11.25 0C11.7176 0 12.0938 0.37793 12.0938 0.84375V2.25H13.5C14.741 2.25 15.75 3.25723 15.75 4.5V15.75C15.75 16.991 14.741 18 13.5 18H2.25C1.00723 18 0 16.991 0 15.75V4.5C0 3.25723 1.00723 2.25 2.25 2.25H3.65625V0.84375C3.65625 0.37793 4.03242 0 4.5 0C4.96758 0 5.34375 0.37793 5.34375 0.84375V2.25ZM1.6875 15.75C1.6875 16.0594 1.93922 16.3125 2.25 16.3125H13.5C13.8094 16.3125 14.0625 16.0594 14.0625 15.75V6.75H1.6875V15.75Z" fill="white"/>
</svg>
