<svg width="18" height="17" viewBox="0 0 18 17" fill="none" xmlns="http://www.w3.org/2000/svg">
<path d="M0.920455 16.6667C1.23409 15.7361 1.47273 14.7292 1.63636 13.6458C1.8 12.5625 1.90227 11.3681 1.94318 10.0625C1.37045 9.88194 0.903409 9.52083 0.542045 8.97917C0.180682 8.4375 0 7.83333 0 7.16667V5.91667C1.56818 5.36111 3.17045 4.53819 4.80682 3.44792C6.44318 2.35764 7.84091 1.20833 9 0C10.1591 1.20833 11.5568 2.35764 13.1932 3.44792C14.8295 4.53819 16.4318 5.36111 18 5.91667V7.16667C18 7.83333 17.8227 8.4375 17.4682 8.97917C17.1136 9.52083 16.65 9.88194 16.0773 10.0625C16.1045 11.3125 16.2034 12.4861 16.3739 13.5833C16.5443 14.6806 16.7864 15.7083 17.1 16.6667H0.920455ZM3.06818 5.91667H14.9318C13.9364 5.40278 12.9477 4.79861 11.9659 4.10417C10.9841 3.40972 9.99545 2.61111 9 1.70833C8.05909 2.56944 7.09091 3.35417 6.09545 4.0625C5.1 4.77083 4.09091 5.38889 3.06818 5.91667ZM11.1068 8.9375C11.5432 8.9375 11.8977 8.76042 12.1705 8.40625C12.4432 8.05208 12.5795 7.63889 12.5795 7.16667H9.61364C9.61364 7.63889 9.75341 8.05208 10.033 8.40625C10.3125 8.76042 10.6705 8.9375 11.1068 8.9375ZM6.91364 8.9375C7.35 8.9375 7.70455 8.76042 7.97727 8.40625C8.25 8.05208 8.38636 7.63889 8.38636 7.16667H5.42045C5.42045 7.63889 5.56023 8.05208 5.83977 8.40625C6.11932 8.76042 6.47727 8.9375 6.91364 8.9375ZM2.72045 8.9375C3.15682 8.9375 3.51136 8.76042 3.78409 8.40625C4.05682 8.05208 4.19318 7.63889 4.19318 7.16667H1.22727C1.22727 7.63889 1.36705 8.05208 1.64659 8.40625C1.92614 8.76042 2.28409 8.9375 2.72045 8.9375ZM2.55682 15.4167H5.27727C5.38636 14.7083 5.48182 13.9375 5.56364 13.1042C5.64545 12.2708 5.72045 11.2361 5.78864 10C5.63864 9.93056 5.46477 9.80903 5.26705 9.63542C5.06932 9.46181 4.93636 9.29861 4.86818 9.14583C4.63636 9.42361 4.38068 9.64583 4.10114 9.8125C3.82159 9.97917 3.51136 10.0972 3.17045 10.1667C3.12955 11.1667 3.05795 12.0938 2.95568 12.9479C2.85341 13.8021 2.72045 14.625 2.55682 15.4167ZM6.54545 15.4167H11.475C11.3659 14.6944 11.2773 13.9167 11.2091 13.0833C11.1409 12.25 11.0795 11.2708 11.025 10.1458C10.575 10.1181 10.1625 10.0035 9.7875 9.80208C9.4125 9.60069 9.12955 9.32639 8.93864 8.97917C8.74773 9.32639 8.48182 9.60069 8.14091 9.80208C7.8 10.0035 7.41818 10.1181 6.99545 10.1458C6.94091 11.0347 6.88295 11.9167 6.82159 12.7917C6.76023 13.6667 6.66818 14.5417 6.54545 15.4167ZM12.7227 15.4167H15.4636C15.2727 14.5694 15.1295 13.7118 15.0341 12.8438C14.9386 11.9757 14.8773 11.0833 14.85 10.1667C14.5227 10.0972 14.233 9.98264 13.9807 9.82292C13.7284 9.66319 13.4864 9.4375 13.2545 9.14583C13.1182 9.34028 12.9545 9.51389 12.7636 9.66667C12.5727 9.81944 12.3955 9.93056 12.2318 10C12.2727 10.7917 12.3307 11.6285 12.4057 12.5104C12.4807 13.3924 12.5864 14.3611 12.7227 15.4167ZM15.3 8.9375C15.7364 8.9375 16.0909 8.76042 16.3636 8.40625C16.6364 8.05208 16.7727 7.63889 16.7727 7.16667H13.8068C13.8068 7.63889 13.9466 8.05208 14.2261 8.40625C14.5057 8.76042 14.8636 8.9375 15.3 8.9375Z" fill="#D0A50B"/>
</svg>
