<svg width="17" height="20" viewBox="0 0 17 20" fill="none" xmlns="http://www.w3.org/2000/svg">
<path d="M5.78365 7.18166L15.3996 4.43425M15.3996 10.4355V13.8697C15.3995 14.3175 15.2536 14.753 14.9839 15.1104C14.7142 15.4678 14.3355 15.7277 13.905 15.8506L12.6961 16.1959C12.4865 16.2592 12.2664 16.2802 12.0486 16.2577C11.8308 16.2352 11.6197 16.1696 11.4275 16.0647C11.2353 15.9598 11.0658 15.8177 10.9291 15.6467C10.7923 15.4757 10.6909 15.2792 10.6308 15.0687C10.5706 14.8581 10.553 14.6377 10.5789 14.4203C10.6047 14.2028 10.6736 13.9927 10.7814 13.8022C10.8892 13.6116 11.0339 13.4444 11.207 13.3102C11.38 13.1761 11.578 13.0777 11.7895 13.0208L13.905 12.4164C14.3355 12.2934 14.7142 12.0335 14.9839 11.6761C15.2536 11.3187 15.3995 10.8832 15.3996 10.4355ZM15.3996 10.4355V1L5.78365 3.7474V13.1829M5.78365 13.1829V16.6172C5.78356 17.0649 5.63764 17.5004 5.36798 17.8578C5.09831 18.2152 4.71957 18.4751 4.28907 18.598L3.08021 18.9433C2.66155 19.0559 2.21539 18.9994 1.83806 18.7859C1.46073 18.5724 1.18251 18.2191 1.06347 17.8022C0.944425 17.3853 0.994119 16.9383 1.20182 16.5578C1.40952 16.1772 1.75856 15.8936 2.17357 15.7682L4.28907 15.1638C4.71957 15.0408 5.09831 14.781 5.36798 14.4235C5.63764 14.0661 5.78356 13.6306 5.78365 13.1829Z" stroke="#D0A50B" stroke-width="1.5" stroke-linecap="round" stroke-linejoin="round"/>
</svg>
