<svg width="18" height="18" viewBox="0 0 18 18" fill="none" xmlns="http://www.w3.org/2000/svg">
<path d="M14.6707 12.6598L12.1535 12.491C11.9707 12.4805 11.7914 12.5297 11.6438 12.6387C11.4961 12.7477 11.3906 12.8988 11.3484 13.0781L10.7297 15.525C10.1777 15.6727 9.59766 15.75 9 15.75C8.40234 15.75 7.82227 15.6727 7.27031 15.525L6.65156 13.0781C6.60586 12.9023 6.50039 12.7477 6.35625 12.6387C6.21211 12.5297 6.0293 12.4805 5.84648 12.491L3.3293 12.6598C2.71055 11.7035 2.32734 10.5785 2.26055 9.36914L4.39453 8.02617C4.54922 7.92773 4.66172 7.78008 4.71797 7.60781C4.77422 7.43555 4.76719 7.24922 4.70039 7.08047L3.76172 4.73906C4.5 3.83906 5.45977 3.12891 6.56367 2.70352L8.5043 4.3207C8.64492 4.43672 8.8207 4.5 9 4.5C9.1793 4.5 9.35859 4.43672 9.4957 4.3207L11.4363 2.70352C12.5367 3.12891 13.5 3.83906 14.2348 4.73906L13.2961 7.08047C13.2293 7.24922 13.2223 7.43555 13.2785 7.60781C13.3348 7.78008 13.4508 7.92773 13.602 8.02617L15.7359 9.36914C15.6691 10.5785 15.2859 11.7035 14.6672 12.6598H14.6707ZM9 18C13.9711 18 18 13.9711 18 9C18 4.02891 13.9711 0 9 0C4.02891 0 0 4.02891 0 9C0 13.9711 4.02891 18 9 18ZM9.4957 6.54961C9.20039 6.33516 8.79961 6.33516 8.5043 6.54961L6.82031 7.76953C6.525 7.98398 6.40195 8.36367 6.51445 8.71172L7.15781 10.691C7.27031 11.0391 7.59375 11.2746 7.95937 11.2746H10.0406C10.4062 11.2746 10.7297 11.0391 10.8422 10.691L11.4855 8.71172C11.598 8.36367 11.475 7.98398 11.1797 7.76953L9.4957 6.54609V6.54961Z" fill="#D0A50B"/>
</svg>
