<svg width="18" height="15" viewBox="0 0 18 15" fill="none" xmlns="http://www.w3.org/2000/svg">
<path d="M11.2303 14.3356C9.59344 14.0881 8.18719 12.2881 7.36031 10.969C6.79781 10.0719 6.65437 8.99186 6.80906 7.93998L7.48969 3.31904C7.52906 3.04341 7.63312 2.77904 7.8525 2.61029C8.42062 2.17154 9.88875 1.4431 13.0584 1.92123C16.2281 2.39935 17.4234 3.5356 17.8397 4.12342C18 4.34842 18.0225 4.63248 17.9831 4.9081L17.3025 9.52904C17.1478 10.5781 16.6978 11.5709 15.9019 12.2628C14.7291 13.2781 12.8644 14.5831 11.2303 14.3356ZM11.7113 6.52529C11.7141 6.51123 11.7169 6.49435 11.7197 6.48029C11.8097 5.86717 11.3934 5.29904 10.7888 5.20623C10.1841 5.11342 9.62156 5.5381 9.53156 6.14842C9.52875 6.16248 9.52875 6.17935 9.52594 6.19342C9.50906 6.34529 9.67219 6.42967 9.81563 6.38185C10.0688 6.29748 10.3444 6.27217 10.6228 6.31435C10.9013 6.35654 11.16 6.46342 11.3766 6.6181C11.5003 6.70529 11.6803 6.67435 11.7084 6.52529H11.7113ZM14.8781 7.14967C15.0019 7.23686 15.1819 7.20592 15.21 7.05685C15.2128 7.04279 15.2156 7.02592 15.2184 7.01186C15.3084 6.39873 14.8922 5.8306 14.2875 5.73779C13.6828 5.64498 13.1203 6.06967 13.0303 6.67998C13.0275 6.69404 13.0275 6.71092 13.0247 6.72498C13.0078 6.87685 13.1709 6.96123 13.3144 6.91342C13.5675 6.82904 13.8431 6.80373 14.1216 6.84592C14.4 6.8881 14.6588 6.99498 14.8753 7.14967H14.8781ZM14.5547 9.54592C13.7447 9.90592 12.8278 10.0465 11.8856 9.90592C10.9434 9.7653 10.1081 9.35748 9.43875 8.77248C9.26156 8.61779 8.98312 8.72467 9.01125 8.96092C9.17719 10.325 10.2206 11.4669 11.6269 11.6806C13.0331 11.8944 14.3606 11.1125 14.9119 9.85529C15.0075 9.63873 14.7713 9.45311 14.5575 9.54873L14.5547 9.54592ZM6.76969 12.5694C5.13281 12.8169 3.26812 11.5147 2.09812 10.4965C1.30218 9.80748 0.852182 8.81467 0.697494 7.76279L0.0168687 3.14467C-0.0225063 2.86904 -6.33002e-06 2.58498 0.160306 2.35998C0.576557 1.77216 1.77187 0.638726 4.94156 0.157788C8.11125 -0.32315 9.57937 0.4081 10.1475 0.846851C10.1728 0.866538 10.1953 0.886226 10.215 0.905913C8.73 1.04091 7.82156 1.49654 7.30125 1.89873C6.82312 2.26716 6.65437 2.79873 6.59812 3.18967L6.05531 6.88248C5.98218 6.88529 5.90906 6.89373 5.83312 6.90498C4.84312 7.05404 4.095 7.82467 3.915 8.76967C3.87 9.00029 4.14843 9.11279 4.33125 8.96654C4.77 8.61779 5.29031 8.36748 5.86968 8.25217C5.78531 9.33217 5.98218 10.4656 6.59812 11.4472C6.79219 11.7565 7.02 12.0969 7.27875 12.4428C7.11281 12.5019 6.94406 12.544 6.7725 12.5694H6.76969ZM4.89656 4.41592C4.86843 4.26685 4.68843 4.23592 4.56468 4.3231C4.34812 4.47779 4.09218 4.58467 3.81093 4.62685C3.52968 4.66904 3.25406 4.64373 3.00375 4.55935C2.86031 4.51154 2.69718 4.59592 2.71406 4.74779C2.71687 4.76185 2.71687 4.77873 2.71968 4.79279C2.80968 5.40592 3.37218 5.82779 3.97687 5.73498C4.58156 5.64217 4.99781 5.07404 4.90781 4.46092C4.905 4.44685 4.90218 4.42998 4.89937 4.41592H4.89656Z" fill="#D0A50B"/>
</svg>
