<svg width="18" height="12" viewBox="0 0 18 12" fill="none" xmlns="http://www.w3.org/2000/svg">
<path d="M2 0C0.896875 0 0 0.896875 0 2V4.5C0.828125 4.5 1.5 5.17188 1.5 6C1.5 6.82812 0.828125 7.5 0 7.5V10C0 11.1031 0.896875 12 2 12H16C17.1031 12 18 11.1031 18 10V7.5C17.1719 7.5 16.5 6.82812 16.5 6C16.5 5.17188 17.1719 4.5 18 4.5V2C18 0.896875 17.1031 0 16 0H2ZM4 3V9H14V3H4ZM3 3C3 2.44688 3.44688 2 4 2H14C14.5531 2 15 2.44688 15 3V9C15 9.55313 14.5531 10 14 10H4C3.44688 10 3 9.55313 3 9V3Z" fill="#5E84BE"/>
</svg>
